<svg xmlns="http://www.w3.org/2000/svg" width="100" height="100" viewBox="0 0 24 24">
  <path d="M22.46 5.27c-.82.36-1.7.6-2.62.71.94-.56 1.66-1.45 2-2.51-.88.52-1.86.9-2.91 1.1-.84-.9-2.05-1.46-3.39-1.46-2.57 0-4.66 2.09-4.66 4.66 0 .36.04.71.11 1.05-3.87-.2-7.3-2.05-9.61-4.86-.4.68-.63 1.47-.63 2.31 0 1.61.82 3.03 2.07 3.86-.76-.02-1.47-.23-2.09-.57v.06c0 2.25 1.6 4.13 3.71 4.56-.4.1-.83.16-1.27.16-.31 0-.62-.03-.92-.08.62 1.94 2.42 3.36 4.56 3.4-1.67 1.3-3.76 2.08-6.02 2.08-.39 0-.77-.02-1.15-.07 2.15 1.38 4.72 2.18 7.47 2.18 8.96 0 13.87-7.43 13.87-13.87 0-.21 0-.42-.02-.63.95-.68 1.78-1.54 2.44-2.52z"/>
</svg>
